<svg xmlns="http://www.w3.org/2000/svg" viewBox="0 0 357.71 97" width="357.71" height="97">
  <style>
    .frontend-text path { fill: #fff; }  /* "THE FRONTEND" color */
    .store-text path { fill: #c1c2c7; }  /* "STORE" color */
  </style>
  
  <!-- "THE FRONTEND" -->
  <g class="frontend-text" transform="translate(0, 0)">
    <path d="M28.20 15.82L17.11 15.82L17.11 46.39L10.99 46.39L10.99 15.82L0 15.82L0 10.84L28.20 10.84L28.20 15.82ZM61.08 46.39L54.93 46.39L54.93 30.59L39.04 30.59L39.04 46.39L32.86 46.39L32.86 10.84L39.04 10.84L39.04 25.63L54.93 25.63L54.93 10.84L61.08 10.84L61.08 46.39ZM89.16 30.52L74.56 30.52L74.56 41.46L91.63 41.46L91.63 46.39L68.38 46.39L68.38 10.84L91.46 10.84L91.46 15.82L74.56 15.82L74.56 25.63L89.16 25.63L89.16 30.52ZM129.59 31.32L115.28 31.32L115.28 46.39L109.11 46.39L109.11 10.84L131.69 10.84L131.69 15.82L115.28 15.82L115.28 26.39L129.59 26.39L129.59 31.32ZM149.63 32.69L142.75 32.69L142.75 46.39L136.57 46.39L136.57 10.84L149.07 10.84Q155.22 10.84 158.57 13.60Q161.91 16.36 161.91 21.58Q161.91 25.15 160.19 27.55Q158.47 29.96 155.40 31.25L163.38 46.07L163.38 46.39L156.76 46.39L149.63 32.69M142.75 27.73L149.10 27.73Q152.22 27.73 153.98 26.16Q155.74 24.58 155.74 21.85Q155.74 18.99 154.11 17.43Q152.49 15.87 149.27 15.82L142.75 15.82L142.75 27.73ZM196.14 29.54Q196.14 34.77 194.34 38.71Q192.53 42.65 189.17 44.76Q185.82 46.88 181.45 46.88Q177.12 46.88 173.74 44.76Q170.36 42.65 168.52 38.75Q166.67 34.84 166.65 29.74L166.65 27.73Q166.65 22.53 168.49 18.55Q170.34 14.58 173.69 12.46Q177.05 10.35 181.40 10.35Q185.74 10.35 189.10 12.44Q192.46 14.53 194.29 18.44Q196.12 22.36 196.14 27.56L196.14 29.54M189.97 27.69Q189.97 21.78 187.73 18.63Q185.50 15.48 181.40 15.48Q177.39 15.48 175.13 18.62Q172.88 21.75 172.83 27.49L172.83 29.54Q172.83 35.40 175.11 38.60Q177.39 41.80 181.45 41.80Q185.55 41.80 187.76 38.67Q189.97 35.55 189.97 29.54L189.97 27.69ZM230.49 46.39L224.32 46.39L208.47 21.17L208.47 46.39L202.29 46.39L202.29 10.84L208.47 10.84L224.37 36.16L224.37 10.84L230.49 10.84L230.49 46.39ZM262.77 15.82L251.68 15.82L251.68 46.39L245.56 46.39L245.56 15.82L234.57 15.82L234.57 10.84L262.77 10.84L262.77 15.82ZM288.21 30.52L273.61 30.52L273.61 41.46L290.67 41.46L290.67 46.39L267.43 46.39L267.43 10.84L290.50 10.84L290.50 15.82L273.61 15.82L273.61 25.63L288.21 25.63L288.21 30.52ZM323.90 46.39L317.72 46.39L301.88 21.17L301.88 46.39L295.70 46.39L295.70 10.84L301.88 10.84L317.77 36.16L317.77 10.84L323.90 10.84L323.90 46.39ZM331.20 46.39L331.20 10.84L341.70 10.84Q346.41 10.84 350.06 12.94Q353.71 15.04 355.71 18.90Q357.71 22.75 357.71 27.73L357.71 29.52Q357.71 34.57 355.70 38.40Q353.69 42.24 349.96 44.31Q346.24 46.39 341.43 46.39L331.20 46.39M337.38 15.82L337.38 41.46L341.41 41.46Q346.26 41.46 348.86 38.42Q351.46 35.38 351.51 29.69L351.51 27.71Q351.51 21.92 349.00 18.87Q346.48 15.82 341.70 15.82L337.38 15.82Z"/>
  </g>
  
  <!-- "STORE" -->
  <g class="store-text" transform="translate(0, 40)">
    <path d="M6.03 30.98L20.43 36.45L20.43 42.38L0 33.28L0 28.56L20.43 19.48L20.43 25.42L6.03 30.98ZM33.20 35.91L28.10 35.91L27.54 10.84L33.79 10.84L33.20 35.91M27.37 43.58Q27.37 42.19 28.27 41.27Q29.17 40.36 30.74 40.36Q32.30 40.36 33.20 41.27Q34.11 42.19 34.11 43.58Q34.11 44.92 33.23 45.83Q32.35 46.73 30.74 46.73Q29.13 46.73 28.25 45.83Q27.37 44.92 27.37 43.58ZM51.83 33.67L39.01 33.67L39.01 28.88L51.83 28.88L51.83 33.67ZM68.24 33.67L55.42 33.67L55.42 28.88L68.24 28.88L68.24 33.67ZM129.64 37.23Q129.64 34.89 127.99 33.62Q126.34 32.35 122.05 31.05Q117.75 29.76 115.21 28.17Q110.35 25.12 110.35 20.21Q110.35 15.92 113.85 13.13Q117.36 10.35 122.95 10.35Q126.66 10.35 129.57 11.72Q132.47 13.09 134.13 15.61Q135.79 18.14 135.79 21.22L129.64 21.22Q129.64 18.43 127.89 16.86Q126.15 15.28 122.90 15.28Q119.87 15.28 118.20 16.58Q116.53 17.87 116.53 20.19Q116.53 22.14 118.33 23.45Q120.14 24.76 124.29 25.99Q128.44 27.22 130.96 28.80Q133.47 30.37 134.64 32.41Q135.82 34.45 135.82 37.18Q135.82 41.63 132.41 44.25Q129.00 46.88 123.17 46.88Q119.31 46.88 116.08 45.45Q112.84 44.02 111.05 41.50Q109.25 38.99 109.25 35.64L115.43 35.64Q115.43 38.67 117.43 40.33Q119.43 41.99 123.17 41.99Q126.39 41.99 128.02 40.69Q129.64 39.38 129.64 37.23ZM166.92 15.82L155.83 15.82L155.83 46.39L149.71 46.39L149.71 15.82L138.72 15.82L138.72 10.84L166.92 10.84L166.92 15.82ZM199.27 29.54Q199.27 34.77 197.46 38.71Q195.65 42.65 192.30 44.76Q188.94 46.88 184.57 46.88Q180.25 46.88 176.87 44.76Q173.49 42.65 171.64 38.75Q169.80 34.84 169.78 29.74L169.78 27.73Q169.78 22.53 171.62 18.55Q173.46 14.58 176.82 12.46Q180.18 10.35 184.52 10.35Q188.87 10.35 192.22 12.44Q195.58 14.53 197.41 18.44Q199.24 22.36 199.27 27.56L199.27 29.54M193.09 27.69Q193.09 21.78 190.86 18.63Q188.62 15.48 184.52 15.48Q180.52 15.48 178.26 18.62Q176.00 21.75 175.95 27.49L175.95 29.54Q175.95 35.40 178.23 38.60Q180.52 41.80 184.57 41.80Q188.67 41.80 190.88 38.67Q193.09 35.55 193.09 29.54L193.09 27.69ZM218.48 32.69L211.60 32.69L211.60 46.39L205.42 46.39L205.42 10.84L217.92 10.84Q224.07 10.84 227.42 13.60Q230.76 16.36 230.76 21.58Q230.76 25.15 229.04 27.55Q227.32 29.96 224.24 31.25L232.23 46.07L232.23 46.39L225.61 46.39L218.48 32.69M211.60 27.73L217.94 27.73Q221.07 27.73 222.83 26.16Q224.58 24.58 224.58 21.85Q224.58 18.99 222.96 17.43Q221.34 15.87 218.12 15.82L211.60 15.82L211.60 27.73ZM257.40 30.52L242.80 30.52L242.80 41.46L259.86 41.46L259.86 46.39L236.62 46.39L236.62 10.84L259.69 10.84L259.69 15.82L242.80 15.82L242.80 25.63L257.40 25.63L257.40 30.52ZM313.18 33.67L300.37 33.67L300.37 28.88L313.18 28.88L313.18 33.67ZM329.59 33.67L316.77 33.67L316.77 28.88L329.59 28.88L329.59 33.67ZM349.66 30.86L334.57 25.32L334.57 19.48L355.66 28.56L355.66 33.28L334.57 42.36L334.57 36.52L349.66 30.86Z"/>
  </g>
</svg>