<svg xmlns="http://www.w3.org/2000/svg" fill="#240115" viewBox="0 18 373.75 74.33000183105469" data-asc="1.082" width="373.75" height="74.33000183105469"><defs/><g><g><g transform="translate(0, 0)"><path d="M28.15 18.70Q27.95 20.60 27.88 22.38Q27.80 24.15 27.80 25.10Q27.80 26.30 27.85 27.35Q27.90 28.40 27.95 29.20L26.80 29.20Q26.45 25.70 25.85 23.68Q25.25 21.65 23.75 20.75Q22.25 19.85 19.10 19.85L16.40 19.85L16.40 48.30Q16.40 50.30 16.78 51.30Q17.15 52.30 18.25 52.65Q19.35 53 21.45 53.10L21.45 54.10Q20.15 54 18.15 53.98Q16.15 53.95 14.10 53.95Q11.85 53.95 9.88 53.98Q7.90 54 6.70 54.10L6.70 53.10Q8.80 53 9.90 52.65Q11 52.30 11.38 51.30Q11.75 50.30 11.75 48.30L11.75 19.85L9.05 19.85Q5.95 19.85 4.42 20.75Q2.90 21.65 2.30 23.68Q1.70 25.70 1.35 29.20L0.20 29.20Q0.30 28.40 0.32 27.35Q0.35 26.30 0.35 25.10Q0.35 24.15 0.27 22.38Q0.20 20.60 0 18.70Q2.10 18.75 4.58 18.80Q7.05 18.85 9.55 18.85Q12.05 18.85 14.10 18.85Q16.15 18.85 18.63 18.85Q21.10 18.85 23.60 18.80Q26.10 18.75 28.15 18.70ZM52.60 54.10L52.60 53.10Q54.30 53 55.18 52.70Q56.05 52.40 56.35 51.50Q56.65 50.60 56.65 48.80L56.65 24Q56.65 22.15 56.35 21.27Q56.05 20.40 55.18 20.08Q54.30 19.75 52.60 19.70L52.60 18.70Q53.75 18.75 55.50 18.80Q57.25 18.85 58.95 18.85Q60.90 18.85 62.60 18.80Q64.30 18.75 65.35 18.70L65.35 19.70Q63.65 19.75 62.78 20.08Q61.90 20.40 61.60 21.27Q61.30 22.15 61.30 24L61.30 48.80Q61.30 50.60 61.60 51.50Q61.90 52.40 62.78 52.70Q63.65 53 65.35 53.10L65.35 54.10Q64.30 54 62.60 53.98Q60.90 53.95 58.95 53.95Q57.25 53.95 55.50 53.98Q53.75 54 52.60 54.10M31.70 54.10L31.70 53.10Q33.40 53 34.27 52.70Q35.15 52.40 35.45 51.50Q35.75 50.60 35.75 48.80L35.75 24Q35.75 22.15 35.45 21.27Q35.15 20.40 34.27 20.08Q33.40 19.75 31.70 19.70L31.70 18.70Q32.75 18.75 34.45 18.80Q36.15 18.85 38.10 18.85Q39.85 18.85 41.58 18.80Q43.30 18.75 44.45 18.70L44.45 19.70Q42.75 19.75 41.88 20.08Q41 20.40 40.70 21.27Q40.40 22.15 40.40 24L40.40 48.80Q40.40 50.60 40.70 51.50Q41 52.40 41.88 52.70Q42.75 53 44.45 53.10L44.45 54.10Q43.30 54 41.58 53.98Q39.85 53.95 38.10 53.95Q36.15 53.95 34.45 53.98Q32.75 54 31.70 54.10M38.65 36.80L38.65 35.80L58.40 35.80L58.40 36.80L38.65 36.80ZM94.50 18.70Q94.30 20.45 94.23 22.10Q94.15 23.75 94.15 24.60Q94.15 25.50 94.20 26.32Q94.25 27.15 94.30 27.70L93.15 27.70Q92.85 24.75 92.30 23.02Q91.75 21.30 90.43 20.58Q89.10 19.85 86.45 19.85L82.30 19.85Q80.60 19.85 79.73 20.13Q78.85 20.40 78.55 21.27Q78.25 22.15 78.25 24L78.25 48.80Q78.25 50.60 78.55 51.50Q78.85 52.40 79.73 52.68Q80.60 52.95 82.30 52.95L85.95 52.95Q89.10 52.95 90.73 52.10Q92.35 51.25 93.08 49.33Q93.80 47.40 94.15 44.10L95.30 44.10Q95.15 45.45 95.15 47.70Q95.15 48.65 95.23 50.43Q95.30 52.20 95.50 54.10Q92.95 54 89.75 53.98Q86.55 53.95 84.05 53.95Q82.95 53.95 81.23 53.95Q79.50 53.95 77.50 53.98Q75.50 54 73.45 54.02Q71.40 54.05 69.55 54.10L69.55 53.10Q71.25 53 72.13 52.70Q73 52.40 73.30 51.50Q73.60 50.60 73.60 48.80L73.60 24Q73.60 22.15 73.30 21.27Q73 20.40 72.13 20.08Q71.25 19.75 69.55 19.70L69.55 18.70Q71.40 18.75 73.45 18.77Q75.50 18.80 77.50 18.83Q79.50 18.85 81.23 18.85Q82.95 18.85 84.05 18.85Q86.35 18.85 89.28 18.83Q92.20 18.80 94.50 18.70M85.90 35.80Q85.90 35.80 85.90 36.30Q85.90 36.80 85.90 36.80L76.75 36.80Q76.75 36.80 76.75 36.30Q76.75 35.80 76.75 35.80L85.90 35.80M87.35 29.20Q87.15 32.05 87.18 33.55Q87.20 35.05 87.20 36.30Q87.20 37.55 87.25 39.05Q87.30 40.55 87.50 43.40L86.35 43.40Q86.15 41.80 85.88 40.27Q85.60 38.75 84.68 37.78Q83.75 36.80 81.55 36.80L81.55 35.80Q83.20 35.80 84.08 35.13Q84.95 34.45 85.35 33.40Q85.75 32.35 85.90 31.23Q86.05 30.10 86.20 29.20L87.35 29.20ZM137.40 18.70Q137.20 20.60 137.13 22.38Q137.05 24.15 137.05 25.10Q137.05 26.30 137.10 27.35Q137.15 28.40 137.20 29.20L136.05 29.20Q135.70 25.70 135.10 23.68Q134.50 21.65 133 20.75Q131.50 19.85 128.35 19.85L125.20 19.85Q123.50 19.85 122.63 20.13Q121.75 20.40 121.45 21.27Q121.15 22.15 121.15 24L121.15 48.80Q121.15 50.60 121.53 51.50Q121.90 52.40 123.00 52.70Q124.10 53 126.20 53.10L126.20 54.10Q124.90 54 122.90 53.98Q120.90 53.95 118.85 53.95Q116.90 53.95 115.20 53.98Q113.50 54 112.45 54.10L112.45 53.10Q114.15 53 115.03 52.70Q115.90 52.40 116.20 51.50Q116.50 50.60 116.50 48.80L116.50 24Q116.50 22.15 116.20 21.27Q115.90 20.40 115.03 20.08Q114.15 19.75 112.45 19.70L112.45 18.70Q114.30 18.75 116.35 18.77Q118.40 18.80 120.40 18.83Q122.40 18.85 124.13 18.85Q125.85 18.85 126.95 18.85Q129.25 18.85 132.18 18.83Q135.10 18.80 137.40 18.70M129.65 36.30Q129.65 36.30 129.65 36.80Q129.65 37.30 129.65 37.30L119.65 37.30Q119.65 37.30 119.65 36.80Q119.65 36.30 119.65 36.30L129.65 36.30M130.60 29.70Q130.40 32.55 130.43 34.05Q130.45 35.55 130.45 36.80Q130.45 38.05 130.50 39.55Q130.55 41.05 130.75 43.90L129.60 43.90Q129.40 42.30 129.13 40.77Q128.85 39.25 127.93 38.27Q127.00 37.30 124.80 37.30L124.80 36.30Q126.45 36.30 127.33 35.63Q128.20 34.95 128.60 33.90Q129 32.85 129.15 31.73Q129.30 30.60 129.45 29.70L130.60 29.70ZM140.90 18.70Q141.95 18.75 143.65 18.80Q145.35 18.85 147 18.85Q149.35 18.85 151.50 18.80Q153.65 18.75 154.55 18.75Q158.60 18.75 161.28 19.90Q163.95 21.05 165.28 23.02Q166.60 25 166.60 27.45Q166.60 28.95 166 30.65Q165.40 32.35 163.93 33.85Q162.45 35.35 159.90 36.33Q157.35 37.30 153.45 37.30L148.65 37.30L148.65 36.30L152.95 36.30Q156.50 36.30 158.38 35.17Q160.25 34.05 160.93 32.17Q161.60 30.30 161.60 28Q161.60 24.05 159.73 21.88Q157.85 19.70 153.30 19.70Q151 19.70 150.30 20.55Q149.60 21.40 149.60 24L149.60 48.80Q149.60 50.60 149.90 51.50Q150.20 52.40 151.08 52.70Q151.95 53 153.65 53.10L153.65 54.10Q152.50 54 150.78 53.98Q149.05 53.95 147.30 53.95Q145.35 53.95 143.65 53.98Q141.95 54 140.90 54.10L140.90 53.10Q142.60 53 143.48 52.70Q144.35 52.40 144.65 51.50Q144.95 50.60 144.95 48.80L144.95 24Q144.95 22.15 144.65 21.27Q144.35 20.40 143.48 20.08Q142.60 19.75 140.90 19.70L140.90 18.70M148.85 36.45Q151.55 36.55 153.10 36.67Q154.65 36.80 155.63 36.90Q156.60 37 157.50 37.15Q160.85 37.70 162.33 39.17Q163.80 40.65 164.50 43.75L165.75 48.85Q166.25 51.05 166.78 52.02Q167.30 53 168.40 52.95Q169.25 52.90 169.83 52.40Q170.40 51.90 171.05 51.05L171.80 51.60Q170.75 53.15 169.63 53.98Q168.50 54.80 166.45 54.80Q164.60 54.80 163.20 53.70Q161.80 52.60 161.10 49.40L160 44.40Q159.55 42.25 158.98 40.67Q158.40 39.10 157.38 38.20Q156.35 37.30 154.35 37.30L148.95 37.30L148.85 36.45ZM189.75 18Q194.50 18 198.08 20.15Q201.65 22.30 203.63 26.32Q205.60 30.35 205.60 36.10Q205.60 41.70 203.58 45.90Q201.55 50.10 197.95 52.45Q194.35 54.80 189.70 54.80Q184.95 54.80 181.38 52.65Q177.80 50.50 175.83 46.45Q173.85 42.40 173.85 36.70Q173.85 31.10 175.90 26.90Q177.95 22.70 181.53 20.35Q185.10 18 189.75 18M189.55 18.90Q186.30 18.90 183.90 21.15Q181.50 23.40 180.18 27.35Q178.85 31.30 178.85 36.50Q178.85 41.80 180.33 45.73Q181.80 49.65 184.33 51.77Q186.85 53.90 189.90 53.90Q193.15 53.90 195.55 51.65Q197.95 49.40 199.28 45.42Q200.60 41.45 200.60 36.30Q200.60 30.95 199.13 27.05Q197.65 23.15 195.15 21.02Q192.65 18.90 189.55 18.90ZM241.75 18.70L241.75 19.70Q240.05 19.75 239.18 20.20Q238.30 20.65 238.00 21.65Q237.70 22.65 237.70 24.50L237.70 54.35Q237.40 54.35 237.13 54.35Q236.85 54.35 236.55 54.35L215.55 21.90L215.55 48.30Q215.55 50.10 215.88 51.13Q216.20 52.15 217.18 52.58Q218.15 53 220.10 53.10L220.10 54.10Q219.20 54 217.75 53.98Q216.30 53.95 215.00 53.95Q213.75 53.95 212.48 53.98Q211.20 54 210.35 54.10L210.35 53.10Q212.05 53 212.93 52.58Q213.80 52.15 214.10 51.13Q214.40 50.10 214.40 48.30L214.40 24Q214.40 22.15 214.10 21.27Q213.80 20.40 212.93 20.08Q212.05 19.75 210.35 19.70L210.35 18.70Q211.20 18.75 212.48 18.80Q213.75 18.85 215.00 18.85Q216.10 18.85 217.10 18.80Q218.10 18.75 218.90 18.70L236.55 45.90L236.55 24.50Q236.55 22.65 236.23 21.65Q235.90 20.65 234.93 20.20Q233.95 19.75 232.00 19.70L232.00 18.70Q232.90 18.75 234.38 18.80Q235.85 18.85 237.10 18.85Q238.40 18.85 239.68 18.80Q240.95 18.75 241.75 18.70ZM273.15 18.70Q272.95 20.60 272.88 22.38Q272.80 24.15 272.80 25.10Q272.80 26.30 272.85 27.35Q272.90 28.40 272.95 29.20L271.80 29.20Q271.45 25.70 270.85 23.68Q270.25 21.65 268.75 20.75Q267.25 19.85 264.10 19.85L261.40 19.85L261.40 48.30Q261.40 50.30 261.78 51.30Q262.15 52.30 263.25 52.65Q264.35 53 266.45 53.10L266.45 54.10Q265.15 54 263.15 53.98Q261.15 53.95 259.10 53.95Q256.85 53.95 254.88 53.98Q252.90 54 251.70 54.10L251.70 53.10Q253.80 53 254.90 52.65Q256.00 52.30 256.38 51.30Q256.75 50.30 256.75 48.30L256.75 19.85L254.05 19.85Q250.95 19.85 249.43 20.75Q247.90 21.65 247.30 23.68Q246.70 25.70 246.35 29.20L245.20 29.20Q245.30 28.40 245.33 27.35Q245.35 26.30 245.35 25.10Q245.35 24.15 245.28 22.38Q245.20 20.60 245.00 18.70Q247.10 18.75 249.58 18.80Q252.05 18.85 254.55 18.85Q257.05 18.85 259.10 18.85Q261.15 18.85 263.63 18.85Q266.10 18.85 268.60 18.80Q271.10 18.75 273.15 18.70ZM301.65 18.70Q301.45 20.45 301.38 22.10Q301.30 23.75 301.30 24.60Q301.30 25.50 301.35 26.32Q301.40 27.15 301.45 27.70L300.30 27.70Q300 24.75 299.45 23.02Q298.90 21.30 297.58 20.58Q296.25 19.85 293.60 19.85L289.45 19.85Q287.75 19.85 286.88 20.13Q286 20.40 285.70 21.27Q285.40 22.15 285.40 24L285.40 48.80Q285.40 50.60 285.70 51.50Q286 52.40 286.88 52.68Q287.75 52.95 289.45 52.95L293.10 52.95Q296.25 52.95 297.88 52.10Q299.50 51.25 300.23 49.33Q300.95 47.40 301.30 44.10L302.45 44.10Q302.30 45.45 302.30 47.70Q302.30 48.65 302.38 50.43Q302.45 52.20 302.65 54.10Q300.10 54 296.90 53.98Q293.70 53.95 291.20 53.95Q290.10 53.95 288.38 53.95Q286.65 53.95 284.65 53.98Q282.65 54 280.60 54.02Q278.55 54.05 276.70 54.10L276.70 53.10Q278.40 53 279.28 52.70Q280.15 52.40 280.45 51.50Q280.75 50.60 280.75 48.80L280.75 24Q280.75 22.15 280.45 21.27Q280.15 20.40 279.28 20.08Q278.40 19.75 276.70 19.70L276.70 18.70Q278.55 18.75 280.60 18.77Q282.65 18.80 284.65 18.83Q286.65 18.85 288.38 18.85Q290.10 18.85 291.20 18.85Q293.50 18.85 296.43 18.83Q299.35 18.80 301.65 18.70M293.05 35.80Q293.05 35.80 293.05 36.30Q293.05 36.80 293.05 36.80L283.90 36.80Q283.90 36.80 283.90 36.30Q283.90 35.80 283.90 35.80L293.05 35.80M294.50 29.20Q294.30 32.05 294.33 33.55Q294.35 35.05 294.35 36.30Q294.35 37.55 294.40 39.05Q294.45 40.55 294.65 43.40L293.50 43.40Q293.30 41.80 293.03 40.27Q292.75 38.75 291.83 37.78Q290.90 36.80 288.70 36.80L288.70 35.80Q290.35 35.80 291.23 35.13Q292.10 34.45 292.50 33.40Q292.90 32.35 293.05 31.23Q293.20 30.10 293.35 29.20L294.50 29.20ZM338.55 18.70L338.55 19.70Q336.85 19.75 335.98 20.20Q335.10 20.65 334.80 21.65Q334.50 22.65 334.50 24.50L334.50 54.35Q334.20 54.35 333.93 54.35Q333.65 54.35 333.35 54.35L312.35 21.90L312.35 48.30Q312.35 50.10 312.68 51.13Q313 52.15 313.98 52.58Q314.95 53 316.90 53.10L316.90 54.10Q316 54 314.55 53.98Q313.10 53.95 311.80 53.95Q310.55 53.95 309.28 53.98Q308 54 307.15 54.10L307.15 53.10Q308.85 53 309.73 52.58Q310.60 52.15 310.90 51.13Q311.20 50.10 311.20 48.30L311.20 24Q311.20 22.15 310.90 21.27Q310.60 20.40 309.73 20.08Q308.85 19.75 307.15 19.70L307.15 18.70Q308 18.75 309.28 18.80Q310.55 18.85 311.80 18.85Q312.90 18.85 313.90 18.80Q314.90 18.75 315.70 18.70L333.35 45.90L333.35 24.50Q333.35 22.65 333.03 21.65Q332.70 20.65 331.73 20.20Q330.75 19.75 328.80 19.70L328.80 18.70Q329.70 18.75 331.18 18.80Q332.65 18.85 333.90 18.85Q335.20 18.85 336.48 18.80Q337.75 18.75 338.55 18.70ZM356.10 18.70Q365.05 18.70 369.40 23.18Q373.75 27.65 373.75 36Q373.75 41.45 371.63 45.52Q369.50 49.60 365.45 51.85Q361.40 54.10 355.65 54.10Q354.90 54.10 353.65 54.05Q352.40 54 351.08 53.98Q349.75 53.95 348.65 53.95Q346.90 53.95 345.20 53.98Q343.50 54 342.45 54.10L342.45 53.10Q344.15 53 345.03 52.70Q345.90 52.40 346.20 51.50Q346.50 50.60 346.50 48.80L346.50 24Q346.50 22.15 346.20 21.27Q345.90 20.40 345.03 20.08Q344.15 19.75 342.45 19.70L342.45 18.70Q343.50 18.75 345.20 18.83Q346.90 18.90 348.55 18.85Q350.30 18.80 352.50 18.75Q354.70 18.70 356.10 18.70M354.85 19.60Q352.55 19.60 351.85 20.45Q351.15 21.30 351.15 23.90L351.15 48.90Q351.15 51.50 351.88 52.35Q352.60 53.20 354.90 53.20Q360.35 53.20 363.35 51.23Q366.35 49.25 367.55 45.45Q368.75 41.65 368.75 36.20Q368.75 30.60 367.43 26.93Q366.10 23.25 363.08 21.42Q360.05 19.60 354.85 19.60Z"/></g><g transform="translate(0, 37.529999999999994)"><path d="M24.35 25L25.20 26.80L4.75 36.35L25.20 45.90L24.35 47.70L0 36.35L24.35 25ZM116.40 18.15Q118.90 18.15 120.20 18.73Q121.50 19.30 122.50 20Q123.10 20.35 123.48 20.52Q123.85 20.70 124.20 20.70Q124.70 20.70 124.93 20.15Q125.15 19.60 125.30 18.50L126.45 18.50Q126.40 19.35 126.33 20.52Q126.25 21.70 126.23 23.63Q126.20 25.55 126.20 28.70L125.05 28.70Q124.90 26.30 124.00 24.10Q123.10 21.90 121.38 20.50Q119.65 19.10 116.85 19.10Q114.20 19.10 112.48 20.70Q110.75 22.30 110.75 24.90Q110.75 27.15 111.90 28.68Q113.05 30.20 114.98 31.43Q116.90 32.65 119.15 34.05Q121.75 35.65 123.78 37.23Q125.80 38.80 126.98 40.70Q128.15 42.60 128.15 45.30Q128.15 48.50 126.70 50.60Q125.25 52.70 122.85 53.75Q120.45 54.80 117.55 54.80Q114.90 54.80 113.35 54.20Q111.80 53.60 110.70 52.95Q109.60 52.25 109.00 52.25Q108.50 52.25 108.28 52.80Q108.05 53.35 107.90 54.45L106.75 54.45Q106.85 53.40 106.88 51.98Q106.90 50.55 106.93 48.25Q106.95 45.95 106.95 42.45L108.10 42.45Q108.30 45.45 109.23 48.05Q110.15 50.65 112.08 52.23Q114.00 53.80 117.20 53.80Q118.85 53.80 120.33 53.13Q121.80 52.45 122.75 50.98Q123.70 49.50 123.70 47.15Q123.70 45.10 122.73 43.58Q121.75 42.05 120.00 40.73Q118.25 39.40 115.90 38Q113.55 36.55 111.50 35.05Q109.45 33.55 108.23 31.57Q107.00 29.60 107.00 26.80Q107.00 23.85 108.33 21.92Q109.65 20 111.80 19.08Q113.95 18.15 116.40 18.15ZM160.20 18.70Q160.00 20.60 159.93 22.38Q159.85 24.15 159.85 25.10Q159.85 26.30 159.90 27.35Q159.95 28.40 160.00 29.20L158.85 29.20Q158.50 25.70 157.90 23.68Q157.30 21.65 155.80 20.75Q154.30 19.85 151.15 19.85L148.45 19.85L148.45 48.30Q148.45 50.30 148.83 51.30Q149.20 52.30 150.30 52.65Q151.40 53 153.50 53.10L153.50 54.10Q152.20 54 150.20 53.98Q148.20 53.95 146.15 53.95Q143.90 53.95 141.93 53.98Q139.95 54 138.75 54.10L138.75 53.10Q140.85 53 141.95 52.65Q143.05 52.30 143.43 51.30Q143.80 50.30 143.80 48.30L143.80 19.85L141.10 19.85Q138.00 19.85 136.48 20.75Q134.95 21.65 134.35 23.68Q133.75 25.70 133.40 29.20L132.25 29.20Q132.35 28.40 132.38 27.35Q132.40 26.30 132.40 25.10Q132.40 24.15 132.33 22.38Q132.25 20.60 132.05 18.70Q134.15 18.75 136.63 18.80Q139.10 18.85 141.60 18.85Q144.10 18.85 146.15 18.85Q148.20 18.85 150.68 18.85Q153.15 18.85 155.65 18.80Q158.15 18.75 160.20 18.70ZM180.20 18Q184.95 18 188.53 20.15Q192.10 22.30 194.08 26.32Q196.05 30.35 196.05 36.10Q196.05 41.70 194.03 45.90Q192.00 50.10 188.40 52.45Q184.80 54.80 180.15 54.80Q175.40 54.80 171.83 52.65Q168.25 50.50 166.28 46.45Q164.30 42.40 164.30 36.70Q164.30 31.10 166.35 26.90Q168.40 22.70 171.98 20.35Q175.55 18 180.20 18M180.00 18.90Q176.75 18.90 174.35 21.15Q171.95 23.40 170.63 27.35Q169.30 31.30 169.30 36.50Q169.30 41.80 170.78 45.73Q172.25 49.65 174.78 51.77Q177.30 53.90 180.35 53.90Q183.60 53.90 186.00 51.65Q188.40 49.40 189.73 45.42Q191.05 41.45 191.05 36.30Q191.05 30.95 189.58 27.05Q188.10 23.15 185.60 21.02Q183.10 18.90 180.00 18.90ZM200.80 18.70Q201.85 18.75 203.55 18.80Q205.25 18.85 206.90 18.85Q209.25 18.85 211.40 18.80Q213.55 18.75 214.45 18.75Q218.50 18.75 221.18 19.90Q223.85 21.05 225.18 23.02Q226.50 25 226.50 27.45Q226.50 28.95 225.90 30.65Q225.30 32.35 223.83 33.85Q222.35 35.35 219.80 36.33Q217.25 37.30 213.35 37.30L208.55 37.30L208.55 36.30L212.85 36.30Q216.40 36.30 218.28 35.17Q220.15 34.05 220.83 32.17Q221.50 30.30 221.50 28Q221.50 24.05 219.63 21.88Q217.75 19.70 213.20 19.70Q210.90 19.70 210.20 20.55Q209.50 21.40 209.50 24L209.50 48.80Q209.50 50.60 209.80 51.50Q210.10 52.40 210.98 52.70Q211.85 53 213.55 53.10L213.55 54.10Q212.40 54 210.68 53.98Q208.95 53.95 207.20 53.95Q205.25 53.95 203.55 53.98Q201.85 54 200.80 54.10L200.80 53.10Q202.50 53 203.38 52.70Q204.25 52.40 204.55 51.50Q204.85 50.60 204.85 48.80L204.85 24Q204.85 22.15 204.55 21.27Q204.25 20.40 203.38 20.08Q202.50 19.75 200.80 19.70L200.80 18.70M208.75 36.45Q211.45 36.55 213.00 36.67Q214.55 36.80 215.53 36.90Q216.50 37 217.40 37.15Q220.75 37.70 222.23 39.17Q223.70 40.65 224.40 43.75L225.65 48.85Q226.15 51.05 226.68 52.02Q227.20 53 228.30 52.95Q229.15 52.90 229.73 52.40Q230.30 51.90 230.95 51.05L231.70 51.60Q230.65 53.15 229.53 53.98Q228.40 54.80 226.35 54.80Q224.50 54.80 223.10 53.70Q221.70 52.60 221.00 49.40L219.90 44.40Q219.45 42.25 218.88 40.67Q218.30 39.10 217.28 38.20Q216.25 37.30 214.25 37.30L208.85 37.30L208.75 36.45ZM258.15 18.70Q257.95 20.45 257.88 22.10Q257.80 23.75 257.80 24.60Q257.80 25.50 257.85 26.32Q257.90 27.15 257.95 27.70L256.80 27.70Q256.50 24.75 255.95 23.02Q255.40 21.30 254.08 20.58Q252.75 19.85 250.10 19.85L245.95 19.85Q244.25 19.85 243.38 20.13Q242.50 20.40 242.20 21.27Q241.90 22.15 241.90 24L241.90 48.80Q241.90 50.60 242.20 51.50Q242.50 52.40 243.38 52.68Q244.25 52.95 245.95 52.95L249.60 52.95Q252.75 52.95 254.38 52.10Q256.00 51.25 256.73 49.33Q257.45 47.40 257.80 44.10L258.95 44.10Q258.80 45.45 258.80 47.70Q258.80 48.65 258.88 50.43Q258.95 52.20 259.15 54.10Q256.60 54 253.40 53.98Q250.20 53.95 247.70 53.95Q246.60 53.95 244.88 53.95Q243.15 53.95 241.15 53.98Q239.15 54 237.10 54.02Q235.05 54.05 233.20 54.10L233.20 53.10Q234.90 53 235.78 52.70Q236.65 52.40 236.95 51.50Q237.25 50.60 237.25 48.80L237.25 24Q237.25 22.15 236.95 21.27Q236.65 20.40 235.78 20.08Q234.90 19.75 233.20 19.70L233.20 18.70Q235.05 18.75 237.10 18.77Q239.15 18.80 241.15 18.83Q243.15 18.85 244.88 18.85Q246.60 18.85 247.70 18.85Q250.00 18.85 252.93 18.83Q255.85 18.80 258.15 18.70M249.55 35.80Q249.55 35.80 249.55 36.30Q249.55 36.80 249.55 36.80L240.40 36.80Q240.40 36.80 240.40 36.30Q240.40 35.80 240.40 35.80L249.55 35.80M251.00 29.20Q250.80 32.05 250.83 33.55Q250.85 35.05 250.85 36.30Q250.85 37.55 250.90 39.05Q250.95 40.55 251.15 43.40L250.00 43.40Q249.80 41.80 249.53 40.27Q249.25 38.75 248.33 37.78Q247.40 36.80 245.20 36.80L245.20 35.80Q246.85 35.80 247.73 35.13Q248.60 34.45 249.00 33.40Q249.40 32.35 249.55 31.23Q249.70 30.10 249.85 29.20L251.00 29.20ZM340.80 25L365.15 36.35L340.80 47.70L339.95 45.90L360.40 36.35L339.95 26.80L340.80 25Z"/></g></g></g></svg>
